<?xml version="1.0" encoding="UTF-8" standalone="no"?>
<!-- Created with Inkscape (http://www.inkscape.org/) -->

<svg
   xmlns:dc="http://purl.org/dc/elements/1.1/"
   xmlns:cc="http://creativecommons.org/ns#"
   xmlns:rdf="http://www.w3.org/1999/02/22-rdf-syntax-ns#"
   xmlns:svg="http://www.w3.org/2000/svg"
   xmlns="http://www.w3.org/2000/svg"
   xmlns:sodipodi="http://sodipodi.sourceforge.net/DTD/sodipodi-0.dtd"
   xmlns:inkscape="http://www.inkscape.org/namespaces/inkscape"
   width="224.23222"
   height="213.84972"
   id="svg2"
   version="1.1"
   inkscape:version="0.48.4 r9939"
   sodipodi:docname="giltig_petersen.svg"
   inkscape:export-filename="/home/jsannemo/Documents/skola/projarbete/giltig_petersen.png"
   inkscape:export-xdpi="90"
   inkscape:export-ydpi="90">
  <defs
     id="defs4" />
  <sodipodi:namedview
     id="base"
     pagecolor="#ffffff"
     bordercolor="#666666"
     borderopacity="1.0"
     inkscape:pageopacity="0.0"
     inkscape:pageshadow="2"
     inkscape:zoom="1.979899"
     inkscape:cx="55.077252"
     inkscape:cy="109.39531"
     inkscape:document-units="px"
     inkscape:current-layer="layer1"
     showgrid="false"
     fit-margin-top="0"
     fit-margin-left="0"
     fit-margin-right="0"
     fit-margin-bottom="0"
     inkscape:window-width="1600"
     inkscape:window-height="876"
     inkscape:window-x="1920"
     inkscape:window-y="432"
     inkscape:window-maximized="1" />
  <metadata
     id="metadata7">
    <rdf:RDF>
      <cc:Work
         rdf:about="">
        <dc:format>image/svg+xml</dc:format>
        <dc:type
           rdf:resource="http://purl.org/dc/dcmitype/StillImage" />
        <dc:title></dc:title>
      </cc:Work>
    </rdf:RDF>
  </metadata>
  <g
     inkscape:label="Layer 1"
     inkscape:groupmode="layer"
     id="layer1"
     transform="translate(-151.23188,-11.862181)">
    <path
       style="fill:none;stroke:#000000;stroke-width:1px;stroke-linecap:butt;stroke-linejoin:miter;stroke-opacity:1"
       d="M 206.21652,110.50301 161.87695,96.379066"
       id="path3077"
       inkscape:connector-curvature="0"
       sodipodi:nodetypes="cc" />
    <path
       style="fill:none;stroke:#000000;stroke-width:1px;stroke-linecap:butt;stroke-linejoin:miter;stroke-opacity:1"
       d="m 262.23914,69.679993 -0.632,-48.032098"
       id="path3079"
       inkscape:connector-curvature="0"
       sodipodi:nodetypes="cc" />
    <path
       style="fill:none;stroke:#000000;stroke-width:1px;stroke-linecap:butt;stroke-linejoin:miter;stroke-opacity:1"
       d="M 318.05076,109.89906 364.46429,94.683609"
       id="path3083"
       inkscape:connector-curvature="0"
       sodipodi:nodetypes="cc" />
    <path
       style="fill:none;stroke:#000000;stroke-width:1px;stroke-linecap:butt;stroke-linejoin:miter;stroke-opacity:1"
       d="m 297.36388,175.67745 29.60041,39.89902"
       id="path3081"
       inkscape:connector-curvature="0"
       sodipodi:nodetypes="cc" />
    <path
       style="fill:none;stroke:#000000;stroke-width:1.26775265px;stroke-linecap:butt;stroke-linejoin:miter;stroke-opacity:1"
       d="m 227.17229,177.76175 c -9.26341,12.86087 -18.39895,25.54423 -27.388,38.02419"
       id="path3075"
       inkscape:connector-curvature="0"
       sodipodi:nodetypes="cc" />
    <path
       style="fill:none;stroke:#000000;stroke-width:1px;stroke-linecap:butt;stroke-linejoin:miter;stroke-opacity:1"
       d="m 262.32143,69.326466 c 0.71428,0.178572 -34.10714,107.500004 -34.10714,107.500004 l 90.71428,-67.14286 -112.85714,0.89286 91.42857,65.35714 z"
       id="path3087"
       inkscape:connector-curvature="0" />
    <path
       style="fill:none;stroke:#000000;stroke-width:1px;stroke-linecap:butt;stroke-linejoin:miter;stroke-opacity:1"
       d="m 161.60714,96.469323 100.53572,-75 103.21428,73.392858 -38.92857,119.642859 -125.53571,0.17857 z"
       id="path3085"
       inkscape:connector-curvature="0" />
    <path
       sodipodi:type="arc"
       style="fill:#999999;fill-rule:evenodd;stroke:#000000;stroke-width:1px;stroke-linecap:butt;stroke-linejoin:miter;stroke-opacity:1;fill-opacity:1"
       id="path2989"
       sodipodi:cx="147.85715"
       sodipodi:cy="48.790752"
       sodipodi:rx="10"
       sodipodi:ry="10"
       d="m 157.85715,48.790752 c 0,5.522848 -4.47716,10 -10,10 -5.52285,0 -10,-4.477152 -10,-10 0,-5.522847 4.47715,-10 10,-10 5.52284,0 10,4.477153 10,10 z"
       transform="translate(13.87473,47.582302)" />
    <path
       transform="translate(114.2857,-26.428571)"
       sodipodi:type="arc"
       style="fill:#1a1a1a;fill-rule:evenodd;stroke:#000000;stroke-width:1px;stroke-linecap:butt;stroke-linejoin:miter;stroke-opacity:1;fill-opacity:1"
       id="path2989-1"
       sodipodi:cx="147.85715"
       sodipodi:cy="48.790752"
       sodipodi:rx="10"
       sodipodi:ry="10"
       d="m 157.85715,48.790752 c 0,5.522848 -4.47716,10 -10,10 -5.52285,0 -10,-4.477152 -10,-10 0,-5.522847 4.47715,-10 10,-10 5.52284,0 10,4.477153 10,10 z" />
    <path
       transform="translate(52.482049,166.42115)"
       sodipodi:type="arc"
       style="fill:#1a1a1a;fill-rule:evenodd;stroke:#000000;stroke-width:1px;stroke-linecap:butt;stroke-linejoin:miter;stroke-opacity:1;fill-opacity:1"
       id="path2989-7"
       sodipodi:cx="147.85715"
       sodipodi:cy="48.790752"
       sodipodi:rx="10"
       sodipodi:ry="10"
       d="m 157.85715,48.790752 c 0,5.522848 -4.47716,10 -10,10 -5.52285,0 -10,-4.477152 -10,-10 0,-5.522847 4.47715,-10 10,-10 5.52284,0 10,4.477153 10,10 z" />
    <path
       transform="translate(177.87074,165.36765)"
       sodipodi:type="arc"
       style="fill:#f2f2f2;fill-rule:evenodd;stroke:#000000;stroke-width:1px;stroke-linecap:butt;stroke-linejoin:miter;stroke-opacity:1;fill-opacity:1"
       id="path2989-4"
       sodipodi:cx="147.85715"
       sodipodi:cy="48.790752"
       sodipodi:rx="10"
       sodipodi:ry="10"
       d="m 157.85715,48.790752 c 0,5.522848 -4.47716,10 -10,10 -5.52285,0 -10,-4.477152 -10,-10 0,-5.522847 4.47715,-10 10,-10 5.52284,0 10,4.477153 10,10 z" />
    <path
       transform="translate(217.10695,46.658803)"
       sodipodi:type="arc"
       style="fill:#999999;fill-rule:evenodd;stroke:#000000;stroke-width:1px;stroke-linecap:butt;stroke-linejoin:miter;stroke-opacity:1;fill-opacity:1"
       id="path2989-0"
       sodipodi:cx="147.85715"
       sodipodi:cy="48.790752"
       sodipodi:rx="10"
       sodipodi:ry="10"
       d="m 157.85715,48.790752 c 0,5.522848 -4.47716,10 -10,10 -5.52285,0 -10,-4.477152 -10,-10 0,-5.522847 4.47715,-10 10,-10 5.52284,0 10,4.477153 10,10 z" />
    <path
       transform="translate(58.842853,61.44243)"
       sodipodi:type="arc"
       style="fill:#f2f2f2;fill-rule:evenodd;stroke:#000000;stroke-width:1px;stroke-linecap:butt;stroke-linejoin:miter;stroke-opacity:1;fill-opacity:1"
       id="path2989-9"
       sodipodi:cx="147.85715"
       sodipodi:cy="48.790752"
       sodipodi:rx="10"
       sodipodi:ry="10"
       d="m 157.85715,48.790752 c 0,5.522848 -4.47716,10 -10,10 -5.52285,0 -10,-4.477152 -10,-10 0,-5.522847 4.47715,-10 10,-10 5.52284,0 10,4.477153 10,10 z" />
    <path
       transform="translate(79.871853,128.35743)"
       sodipodi:type="arc"
       style="fill:#f2f2f2;fill-rule:evenodd;stroke:#000000;stroke-width:1px;stroke-linecap:butt;stroke-linejoin:miter;stroke-opacity:1;fill-opacity:1"
       id="path2989-48"
       sodipodi:cx="147.85715"
       sodipodi:cy="48.790752"
       sodipodi:rx="10"
       sodipodi:ry="10"
       d="m 157.85715,48.790752 c 0,5.522848 -4.47716,10 -10,10 -5.52285,0 -10,-4.477152 -10,-10 0,-5.522847 4.47715,-10 10,-10 5.52284,0 10,4.477153 10,10 z" />
    <path
       transform="translate(113.86677,20.21443)"
       sodipodi:type="arc"
       style="fill:#999999;fill-opacity:1;fill-rule:evenodd;stroke:#000000;stroke-width:1px;stroke-linecap:butt;stroke-linejoin:miter;stroke-opacity:1"
       id="path2989-8"
       sodipodi:cx="147.85715"
       sodipodi:cy="48.790752"
       sodipodi:rx="10"
       sodipodi:ry="10"
       d="m 157.85715,48.790752 a 10,10 0 1 1 -20,0 10,10 0 1 1 20,0 z" />
    <path
       transform="translate(170.71385,60.74243)"
       sodipodi:type="arc"
       style="fill:#1a1a1a;fill-opacity:1;fill-rule:evenodd;stroke:#000000;stroke-width:1px;stroke-linecap:butt;stroke-linejoin:miter;stroke-opacity:1"
       id="path2989-2"
       sodipodi:cx="147.85715"
       sodipodi:cy="48.790752"
       sodipodi:rx="10"
       sodipodi:ry="10"
       d="m 157.85715,48.790752 a 10,10 0 1 1 -20,0 10,10 0 1 1 20,0 z" />
    <path
       transform="translate(149.09985,127.17143)"
       sodipodi:type="arc"
       style="fill:#1a1a1a;fill-rule:evenodd;stroke:#000000;stroke-width:1px;stroke-linecap:butt;stroke-linejoin:miter;stroke-opacity:1;fill-opacity:1"
       id="path2989-45"
       sodipodi:cx="147.85715"
       sodipodi:cy="48.790752"
       sodipodi:rx="10"
       sodipodi:ry="10"
       d="m 157.85715,48.790752 c 0,5.522848 -4.47716,10 -10,10 -5.52285,0 -10,-4.477152 -10,-10 0,-5.522847 4.47715,-10 10,-10 5.52284,0 10,4.477153 10,10 z" />
  </g>
</svg>
