<?xml version="1.0" encoding="UTF-8" standalone="no"?>
<!-- Created with Inkscape (http://www.inkscape.org/) -->

<svg
   xmlns:dc="http://purl.org/dc/elements/1.1/"
   xmlns:cc="http://creativecommons.org/ns#"
   xmlns:rdf="http://www.w3.org/1999/02/22-rdf-syntax-ns#"
   xmlns:svg="http://www.w3.org/2000/svg"
   xmlns="http://www.w3.org/2000/svg"
   xmlns:sodipodi="http://sodipodi.sourceforge.net/DTD/sodipodi-0.dtd"
   xmlns:inkscape="http://www.inkscape.org/namespaces/inkscape"
   width="647.71564"
   height="378.32465"
   id="svg3197"
   version="1.1"
   inkscape:version="0.48.4 r9939"
   sodipodi:docname="sets.svg">
  <defs
     id="defs3199">
    <clipPath
       clipPathUnits="userSpaceOnUse"
       id="clipPath3385">
      <path
         transform="matrix(0.99996567,0,0,1.0102564,-57.047504,15.069091)"
         sodipodi:type="arc"
         style="fill:none;stroke:#000000"
         id="path3387"
         sodipodi:cx="169.20055"
         sodipodi:cy="131.10306"
         sodipodi:rx="74.246216"
         sodipodi:ry="73.741135"
         d="m 243.44676,131.10306 a 74.246216,73.741135 0 1 1 -148.49243,0 74.246216,73.741135 0 1 1 148.49243,0 z" />
    </clipPath>
    <clipPath
       clipPathUnits="userSpaceOnUse"
       id="clipPath3389">
      <path
         transform="matrix(0.99996567,0,0,1.0102564,-57.047504,15.069091)"
         sodipodi:type="arc"
         style="fill:none;stroke:#000000"
         id="path3391"
         sodipodi:cx="169.20055"
         sodipodi:cy="131.10306"
         sodipodi:rx="74.246216"
         sodipodi:ry="73.741135"
         d="m 243.44676,131.10306 a 74.246216,73.741135 0 1 1 -148.49243,0 74.246216,73.741135 0 1 1 148.49243,0 z" />
    </clipPath>
    <clipPath
       clipPathUnits="userSpaceOnUse"
       id="clipPath3393">
      <path
         transform="matrix(0.99996567,0,0,1.0102564,-57.047504,15.069091)"
         sodipodi:type="arc"
         style="fill:none;stroke:#000000"
         id="path3395"
         sodipodi:cx="169.20055"
         sodipodi:cy="131.10306"
         sodipodi:rx="74.246216"
         sodipodi:ry="73.741135"
         d="m 243.44676,131.10306 a 74.246216,73.741135 0 1 1 -148.49243,0 74.246216,73.741135 0 1 1 148.49243,0 z" />
    </clipPath>
    <clipPath
       clipPathUnits="userSpaceOnUse"
       id="clipPath3397">
      <path
         transform="matrix(0.99996567,0,0,1.0102564,-57.047504,15.069091)"
         sodipodi:type="arc"
         style="fill:none;stroke:#000000"
         id="path3399"
         sodipodi:cx="169.20055"
         sodipodi:cy="131.10306"
         sodipodi:rx="74.246216"
         sodipodi:ry="73.741135"
         d="m 243.44676,131.10306 a 74.246216,73.741135 0 1 1 -148.49243,0 74.246216,73.741135 0 1 1 148.49243,0 z" />
    </clipPath>
    <clipPath
       clipPathUnits="userSpaceOnUse"
       id="clipPath3385-9">
      <path
         transform="matrix(0.99996567,0,0,1.0102564,-57.047504,15.069091)"
         sodipodi:type="arc"
         style="fill:none;stroke:#000000"
         id="path3387-6"
         sodipodi:cx="169.20055"
         sodipodi:cy="131.10306"
         sodipodi:rx="74.246216"
         sodipodi:ry="73.741135"
         d="m 243.44676,131.10306 a 74.246216,73.741135 0 1 1 -148.49243,0 74.246216,73.741135 0 1 1 148.49243,0 z" />
    </clipPath>
    <clipPath
       clipPathUnits="userSpaceOnUse"
       id="clipPath3389-7">
      <path
         transform="matrix(0.99996567,0,0,1.0102564,-57.047504,15.069091)"
         sodipodi:type="arc"
         style="fill:none;stroke:#000000"
         id="path3391-5"
         sodipodi:cx="169.20055"
         sodipodi:cy="131.10306"
         sodipodi:rx="74.246216"
         sodipodi:ry="73.741135"
         d="m 243.44676,131.10306 a 74.246216,73.741135 0 1 1 -148.49243,0 74.246216,73.741135 0 1 1 148.49243,0 z" />
    </clipPath>
    <clipPath
       clipPathUnits="userSpaceOnUse"
       id="clipPath3393-4">
      <path
         transform="matrix(0.99996567,0,0,1.0102564,-57.047504,15.069091)"
         sodipodi:type="arc"
         style="fill:none;stroke:#000000"
         id="path3395-2"
         sodipodi:cx="169.20055"
         sodipodi:cy="131.10306"
         sodipodi:rx="74.246216"
         sodipodi:ry="73.741135"
         d="m 243.44676,131.10306 a 74.246216,73.741135 0 1 1 -148.49243,0 74.246216,73.741135 0 1 1 148.49243,0 z" />
    </clipPath>
    <clipPath
       clipPathUnits="userSpaceOnUse"
       id="clipPath3397-7">
      <path
         transform="matrix(0.99996567,0,0,1.0102564,-57.047504,15.069091)"
         sodipodi:type="arc"
         style="fill:none;stroke:#000000"
         id="path3399-1"
         sodipodi:cx="169.20055"
         sodipodi:cy="131.10306"
         sodipodi:rx="74.246216"
         sodipodi:ry="73.741135"
         d="m 243.44676,131.10306 a 74.246216,73.741135 0 1 1 -148.49243,0 74.246216,73.741135 0 1 1 148.49243,0 z" />
    </clipPath>
    <clipPath
       clipPathUnits="userSpaceOnUse"
       id="clipPath3615">
      <path
         id="path3617"
         style="fill:none;stroke:#000000"
         d="m 683.36819,161.40764 c 0,40.7261 -33.24116,73.74113 -74.24621,73.74113 -41.00506,0 -74.24622,-33.01503 -74.24622,-73.74113 0,-40.72611 33.24116,-73.741138 74.24622,-73.741138 41.00505,0 74.24621,33.015028 74.24621,73.741138 z m -95.45942,0 c 0,40.7261 -33.24116,73.74113 -74.24621,73.74113 -41.00506,0 -74.24622,-33.01503 -74.24622,-73.74113 0,-40.72611 33.24116,-73.741138 74.24622,-73.741138 41.00505,0 74.24621,33.015028 74.24621,73.741138 z"
         inkscape:connector-curvature="0" />
    </clipPath>
    <clipPath
       clipPathUnits="userSpaceOnUse"
       id="clipPath3619">
      <path
         id="path3621"
         style="fill:none;stroke:#000000"
         d="m 683.36819,161.40764 c 0,40.7261 -33.24116,73.74113 -74.24621,73.74113 -41.00506,0 -74.24622,-33.01503 -74.24622,-73.74113 0,-40.72611 33.24116,-73.741138 74.24622,-73.741138 41.00505,0 74.24621,33.015028 74.24621,73.741138 z m -95.45942,0 c 0,40.7261 -33.24116,73.74113 -74.24621,73.74113 -41.00506,0 -74.24622,-33.01503 -74.24622,-73.74113 0,-40.72611 33.24116,-73.741138 74.24622,-73.741138 41.00505,0 74.24621,33.015028 74.24621,73.741138 z"
         inkscape:connector-curvature="0" />
    </clipPath>
    <clipPath
       clipPathUnits="userSpaceOnUse"
       id="clipPath3623">
      <path
         id="path3625"
         style="fill:none;stroke:#000000"
         d="m 683.36819,161.40764 c 0,40.7261 -33.24116,73.74113 -74.24621,73.74113 -41.00506,0 -74.24622,-33.01503 -74.24622,-73.74113 0,-40.72611 33.24116,-73.741138 74.24622,-73.741138 41.00505,0 74.24621,33.015028 74.24621,73.741138 z m -95.45942,0 c 0,40.7261 -33.24116,73.74113 -74.24621,73.74113 -41.00506,0 -74.24622,-33.01503 -74.24622,-73.74113 0,-40.72611 33.24116,-73.741138 74.24622,-73.741138 41.00505,0 74.24621,33.015028 74.24621,73.741138 z"
         inkscape:connector-curvature="0" />
    </clipPath>
    <clipPath
       clipPathUnits="userSpaceOnUse"
       id="clipPath3627">
      <path
         id="path3629"
         style="fill:none;stroke:#000000"
         d="m 683.36819,161.40764 c 0,40.7261 -33.24116,73.74113 -74.24621,73.74113 -41.00506,0 -74.24622,-33.01503 -74.24622,-73.74113 0,-40.72611 33.24116,-73.741138 74.24622,-73.741138 41.00505,0 74.24621,33.015028 74.24621,73.741138 z m -95.45942,0 c 0,40.7261 -33.24116,73.74113 -74.24621,73.74113 -41.00506,0 -74.24622,-33.01503 -74.24622,-73.74113 0,-40.72611 33.24116,-73.741138 74.24622,-73.741138 41.00505,0 74.24621,33.015028 74.24621,73.741138 z"
         inkscape:connector-curvature="0" />
    </clipPath>
    <clipPath
       clipPathUnits="userSpaceOnUse"
       id="clipPath3631">
      <path
         id="path3633"
         style="fill:none;stroke:#000000"
         d="m 683.36819,161.40764 c 0,40.7261 -33.24116,73.74113 -74.24621,73.74113 -41.00506,0 -74.24622,-33.01503 -74.24622,-73.74113 0,-40.72611 33.24116,-73.741138 74.24622,-73.741138 41.00505,0 74.24621,33.015028 74.24621,73.741138 z m -95.45942,0 c 0,40.7261 -33.24116,73.74113 -74.24621,73.74113 -41.00506,0 -74.24622,-33.01503 -74.24622,-73.74113 0,-40.72611 33.24116,-73.741138 74.24622,-73.741138 41.00505,0 74.24621,33.015028 74.24621,73.741138 z"
         inkscape:connector-curvature="0" />
    </clipPath>
    <clipPath
       clipPathUnits="userSpaceOnUse"
       id="clipPath3635">
      <path
         id="path3637"
         style="fill:none;stroke:#000000"
         d="m 683.36819,161.40764 c 0,40.7261 -33.24116,73.74113 -74.24621,73.74113 -41.00506,0 -74.24622,-33.01503 -74.24622,-73.74113 0,-40.72611 33.24116,-73.741138 74.24622,-73.741138 41.00505,0 74.24621,33.015028 74.24621,73.741138 z m -95.45942,0 c 0,40.7261 -33.24116,73.74113 -74.24621,73.74113 -41.00506,0 -74.24622,-33.01503 -74.24622,-73.74113 0,-40.72611 33.24116,-73.741138 74.24622,-73.741138 41.00505,0 74.24621,33.015028 74.24621,73.741138 z"
         inkscape:connector-curvature="0" />
    </clipPath>
    <clipPath
       clipPathUnits="userSpaceOnUse"
       id="clipPath3805">
      <path
         style="fill:none;stroke:#000000"
         d="m 266.67601,311.00698 c -16.20547,13.52699 -26.5,33.79879 -26.5,56.46875 0,22.66995 10.29453,42.94177 26.5,56.46875 16.20547,-13.52698 26.53125,-33.7988 26.53125,-56.46875 0,-22.66996 -10.32578,-42.94176 -26.53125,-56.46875 z"
         id="path3807"
         inkscape:connector-curvature="0" />
    </clipPath>
    <clipPath
       clipPathUnits="userSpaceOnUse"
       id="clipPath3809">
      <path
         style="fill:none;stroke:#000000"
         d="m 266.67601,311.00698 c -16.20547,13.52699 -26.5,33.79879 -26.5,56.46875 0,22.66995 10.29453,42.94177 26.5,56.46875 16.20547,-13.52698 26.53125,-33.7988 26.53125,-56.46875 0,-22.66996 -10.32578,-42.94176 -26.53125,-56.46875 z"
         id="path3811"
         inkscape:connector-curvature="0" />
    </clipPath>
    <clipPath
       clipPathUnits="userSpaceOnUse"
       id="clipPath3958">
      <path
         style="fill:none;stroke:#000000;stroke-width:1"
         d="m 504.96875,328.33036 c 18.17983,0 34.81142,6.50728 47.71875,17.28125 -16.20547,13.52699 -26.5,33.79879 -26.5,56.46875 0,22.66995 10.29453,42.94177 26.5,56.46875 -12.90733,10.77397 -29.53892,17.28125 -47.71875,17.28125 -41.00505,0 -74.25,-33.0239 -74.25,-73.75 0,-40.72611 33.24495,-73.75 74.25,-73.75 z"
         id="path3960"
         inkscape:connector-curvature="0" />
    </clipPath>
    <clipPath
       clipPathUnits="userSpaceOnUse"
       id="clipPath3962">
      <path
         style="fill:none;stroke:#000000;stroke-width:1"
         d="m 504.96875,328.33036 c 18.17983,0 34.81142,6.50728 47.71875,17.28125 -16.20547,13.52699 -26.5,33.79879 -26.5,56.46875 0,22.66995 10.29453,42.94177 26.5,56.46875 -12.90733,10.77397 -29.53892,17.28125 -47.71875,17.28125 -41.00505,0 -74.25,-33.0239 -74.25,-73.75 0,-40.72611 33.24495,-73.75 74.25,-73.75 z"
         id="path3964"
         inkscape:connector-curvature="0" />
    </clipPath>
    <clipPath
       clipPathUnits="userSpaceOnUse"
       id="clipPath3805-9">
      <path
         style="fill:none;stroke:#000000"
         d="m 266.67601,311.00698 c -16.20547,13.52699 -26.5,33.79879 -26.5,56.46875 0,22.66995 10.29453,42.94177 26.5,56.46875 16.20547,-13.52698 26.53125,-33.7988 26.53125,-56.46875 0,-22.66996 -10.32578,-42.94176 -26.53125,-56.46875 z"
         id="path3807-5"
         inkscape:connector-curvature="0" />
    </clipPath>
    <clipPath
       clipPathUnits="userSpaceOnUse"
       id="clipPath3809-6">
      <path
         style="fill:none;stroke:#000000"
         d="m 266.67601,311.00698 c -16.20547,13.52699 -26.5,33.79879 -26.5,56.46875 0,22.66995 10.29453,42.94177 26.5,56.46875 16.20547,-13.52698 26.53125,-33.7988 26.53125,-56.46875 0,-22.66996 -10.32578,-42.94176 -26.53125,-56.46875 z"
         id="path3811-6"
         inkscape:connector-curvature="0" />
    </clipPath>
  </defs>
  <sodipodi:namedview
     id="base"
     pagecolor="#ffffff"
     bordercolor="#666666"
     borderopacity="1.0"
     inkscape:pageopacity="0.0"
     inkscape:pageshadow="2"
     inkscape:zoom="1.4"
     inkscape:cx="290.33413"
     inkscape:cy="42.840897"
     inkscape:document-units="px"
     inkscape:current-layer="layer1"
     showgrid="false"
     inkscape:window-width="1680"
     inkscape:window-height="984"
     inkscape:window-x="0"
     inkscape:window-y="27"
     inkscape:window-maximized="1"
     fit-margin-top="0"
     fit-margin-left="0"
     fit-margin-right="0"
     fit-margin-bottom="0" />
  <metadata
     id="metadata3202">
    <rdf:RDF>
      <cc:Work
         rdf:about="">
        <dc:format>image/svg+xml</dc:format>
        <dc:type
           rdf:resource="http://purl.org/dc/dcmitype/StillImage" />
      </cc:Work>
    </rdf:RDF>
  </metadata>
  <g
     inkscape:label="Layer 1"
     inkscape:groupmode="layer"
     id="layer1"
     transform="translate(-37.854,-35.158394)">
    <rect
       style="fill:#ff0000;stroke:#000000;stroke-width:1.0497278"
       id="rect3303-1-7-7-0-9"
       width="264.61023"
       height="76.844933"
       x="127.18609"
       y="294.65863"
       clip-path="url(#clipPath3809)"
       transform="translate(-75.428572,-28.857143)" />
    <rect
       style="fill:#00ff00;stroke:#000000;stroke-width:1.0220052"
       id="rect3303-1-0-2-9-5"
       width="264.63791"
       height="72.832047"
       x="126.06049"
       y="369.83813"
       clip-path="url(#clipPath3805)"
       transform="translate(-75.428572,-28.857143)" />
    <rect
       style="fill:#800080;stroke:#000000;stroke-width:0.59649354"
       id="rect3303-1-6"
       width="265.06345"
       height="24.770233"
       x="432.78308"
       y="136.19539"
       clip-path="url(#clipPath3635)"
       transform="translate(1.4285714,-15)" />
    <rect
       style="fill:#0000ff;stroke:#000000;stroke-width:0.59649354"
       id="rect3303-1-5-7"
       width="265.06345"
       height="24.770233"
       x="432.78308"
       y="111.01322"
       clip-path="url(#clipPath3631)"
       transform="translate(1.4285714,-15)" />
    <rect
       style="fill:#ff0000;stroke:#000000;stroke-width:0.59649354"
       id="rect3303-1-7-7-0"
       width="265.06345"
       height="24.770233"
       x="432.78314"
       y="86.340591"
       clip-path="url(#clipPath3627)"
       transform="translate(1.4285714,-15)" />
    <rect
       style="fill:#00ff00;stroke:#000000;stroke-width:0.59649354"
       id="rect3303-1-0-2-9"
       width="265.06345"
       height="24.770233"
       x="432.78308"
       y="160.54411"
       clip-path="url(#clipPath3623)"
       transform="translate(1.4285714,-15)" />
    <rect
       style="fill:#00ffff;stroke:#000000;stroke-width:0.59649354"
       id="rect3303-1-8-2"
       width="265.06345"
       height="24.770233"
       x="432.78308"
       y="210.22491"
       clip-path="url(#clipPath3619)"
       transform="translate(1.4285714,-15)" />
    <rect
       style="fill:#ffff00;stroke:#000000;stroke-width:0.59649354"
       id="rect3303-1-5-6-3"
       width="265.06345"
       height="24.770233"
       x="432.78308"
       y="185.04276"
       clip-path="url(#clipPath3615)"
       transform="translate(1.4285714,-15)" />
    <rect
       style="fill:#800080;stroke:#000000;stroke-width:0.61347359"
       id="rect3303-1"
       width="188.2749"
       height="36.886528"
       x="22.195059"
       y="147.45822"
       clip-path="url(#clipPath3397)" />
    <rect
       style="fill:#ff0000;stroke:#000000;stroke-width:0.61347359"
       id="rect3303-1-7"
       width="188.2749"
       height="36.886528"
       x="22.195059"
       y="72.458237"
       clip-path="url(#clipPath3393)" />
    <rect
       style="fill:#00ff00;stroke:#000000;stroke-width:0.61347359"
       id="rect3303-1-0"
       width="188.2749"
       height="36.886528"
       x="22.195059"
       y="184.95824"
       clip-path="url(#clipPath3389)" />
    <rect
       style="fill:#0000ff;stroke:#000000;stroke-width:0.61347359"
       id="rect3303-1-5"
       width="188.2749"
       height="36.886528"
       x="22.195059"
       y="109.95825"
       clip-path="url(#clipPath3385)" />
    <text
       xml:space="preserve"
       style="font-size:36px;font-style:normal;font-weight:normal;line-height:125%;letter-spacing:0px;word-spacing:0px;fill:#000000;fill-opacity:1;stroke:none;font-family:Sans"
       x="101.01525"
       y="61.402534"
       id="text3254"
       sodipodi:linespacing="125%"><tspan
         sodipodi:role="line"
         id="tspan3256"
         x="101.01525"
         y="61.402534">A</tspan></text>
    <text
       xml:space="preserve"
       style="font-size:36px;font-style:normal;font-weight:normal;line-height:125%;letter-spacing:0px;word-spacing:0px;fill:#000000;fill-opacity:1;stroke:none;font-family:Sans"
       x="286.68018"
       y="61.402534"
       id="text3254-1"
       sodipodi:linespacing="125%"><tspan
         sodipodi:role="line"
         id="tspan3256-1"
         x="286.68018"
         y="61.402534">B</tspan><tspan
         sodipodi:role="line"
         x="286.68018"
         y="106.40253"
         id="tspan3279" /></text>
    <rect
       transform="translate(190.89853,0.7588601)"
       style="fill:#00ffff;stroke:#000000;stroke-width:0.61347359"
       id="rect3303-1-8"
       width="188.2749"
       height="36.886528"
       x="22.195059"
       y="147.45822"
       clip-path="url(#clipPath3397-7)" />
    <rect
       transform="translate(190.89853,0.7588601)"
       style="fill:#ff0000;stroke:#000000;stroke-width:0.61347359"
       id="rect3303-1-7-7"
       width="188.2749"
       height="36.886528"
       x="22.195059"
       y="72.458237"
       clip-path="url(#clipPath3393-4)" />
    <rect
       transform="translate(190.89853,0.7588601)"
       style="fill:#00ff00;stroke:#000000;stroke-width:0.61347359"
       id="rect3303-1-0-2"
       width="188.2749"
       height="36.886528"
       x="22.195059"
       y="184.95824"
       clip-path="url(#clipPath3389-7)" />
    <rect
       transform="translate(190.89853,0.7588601)"
       style="fill:#ffff00;stroke:#000000;stroke-width:0.61347359"
       id="rect3303-1-5-6"
       width="188.2749"
       height="36.886528"
       x="22.195059"
       y="109.95825"
       clip-path="url(#clipPath3385-9)" />
    <text
       xml:space="preserve"
       style="font-size:14px;font-style:normal;font-weight:normal;line-height:125%;letter-spacing:0px;word-spacing:0px;fill:#000000;fill-opacity:1;stroke:none;font-family:Sans"
       x="517.19806"
       y="64.432991"
       id="text3452"
       sodipodi:linespacing="125%"><tspan
         sodipodi:role="line"
         id="tspan3454"
         x="517.19806"
         y="64.432991"
         style="font-size:32px">A ∪ B</tspan></text>
    <path
       inkscape:connector-curvature="0"
       d="m 313.31728,339.24191 c 0,40.7261 -33.24116,73.74113 -74.24621,73.74113 -41.00506,0 -74.24622,-33.01503 -74.24622,-73.74113 0,-40.72611 33.24116,-73.74114 74.24622,-73.74114 41.00505,0 74.24621,33.01503 74.24621,73.74114 z m -95.45942,0 c 0,40.7261 -33.24116,73.74113 -74.24621,73.74113 -41.00506,0 -74.246222,-33.01503 -74.246222,-73.74113 0,-40.72611 33.241162,-73.74114 74.246222,-73.74114 41.00505,0 74.24621,33.01503 74.24621,73.74114 z"
       style="fill:none;stroke:#000000;stroke-width:1"
       id="path3637-7" />
    <path
       inkscape:connector-curvature="0"
       d="m 685.06961,147.4381 c 0,40.7261 -33.24116,73.74113 -74.24621,73.74113 -41.00506,0 -74.24622,-33.01503 -74.24622,-73.74113 0,-40.72611 33.24116,-73.741144 74.24622,-73.741144 41.00505,0 74.24621,33.015034 74.24621,73.741144 z m -95.45942,0 c 0,40.7261 -33.24116,73.74113 -74.24621,73.74113 -41.00506,0 -74.24622,-33.01503 -74.24622,-73.74113 0,-40.72611 33.24116,-73.741144 74.24622,-73.741144 41.00505,0 74.24621,33.015034 74.24621,73.741144 z"
       style="fill:none;stroke:#000000;stroke-width:1"
       id="path3637-7-8" />
    <path
       style="fill:none;stroke:#000000;stroke-width:1"
       d="m 186.84643,147.46505 c 0,40.7261 -33.24116,73.74113 -74.24621,73.74113 -41.00506,0 -74.24622,-33.01503 -74.24622,-73.74113 0,-40.72611 33.24116,-73.741127 74.24622,-73.741127 41.00505,0 74.24621,33.015017 74.24621,73.741127 z"
       id="path3840"
       inkscape:connector-curvature="0" />
    <path
       style="fill:none;stroke:#000000;stroke-width:1"
       d="m 377.29198,148.27566 c 0,40.7261 -33.24116,73.74113 -74.24621,73.74113 -41.00506,0 -74.24622,-33.01503 -74.24622,-73.74113 0,-40.72611 33.24116,-73.741136 74.24622,-73.741136 41.00505,0 74.24621,33.015026 74.24621,73.741136 z"
       id="path3637-7-3"
       inkscape:connector-curvature="0" />
    <text
       xml:space="preserve"
       style="font-size:14px;font-style:normal;font-weight:normal;line-height:125%;letter-spacing:0px;word-spacing:0px;fill:#000000;fill-opacity:1;stroke:none;font-family:Sans"
       x="147.6161"
       y="253.74052"
       id="text3452-3"
       sodipodi:linespacing="125%"><tspan
         sodipodi:role="line"
         id="tspan3454-9"
         x="147.6161"
         y="253.74052"
         style="font-size:32px">A ∩ B</tspan></text>
    <text
       xml:space="preserve"
       style="font-size:14px;font-style:normal;font-weight:normal;line-height:125%;letter-spacing:0px;word-spacing:0px;fill:#000000;fill-opacity:1;stroke:none;font-family:Sans"
       x="186.42857"
       y="307.36218"
       id="text3863"
       sodipodi:linespacing="125%"><tspan
         sodipodi:role="line"
         id="tspan3865"
         x="186.42857"
         y="307.36218"></tspan></text>
    <text
       xml:space="preserve"
       style="font-size:14px;font-style:normal;font-weight:normal;line-height:125%;letter-spacing:0px;word-spacing:0px;fill:#000000;fill-opacity:1;stroke:none;font-family:Sans"
       x="505.33035"
       y="255.16908"
       id="text3452-3-0"
       sodipodi:linespacing="125%"><tspan
         sodipodi:role="line"
         id="tspan3454-9-0"
         x="505.33035"
         y="255.16908"
         style="font-size:32px">A \ B</tspan></text>
    <rect
       style="fill:#800080;stroke:#000000;stroke-width:0.86597073"
       id="rect3303-1-3"
       width="188.02242"
       height="73.59787"
       x="408.74551"
       y="402.97418"
       clip-path="url(#clipPath3962)"
       transform="translate(-2.5714286,-64.571429)" />
    <rect
       style="fill:#0000ff;stroke:#000000;stroke-width:0.86597073"
       id="rect3303-1-5-70"
       width="188.02242"
       height="73.59787"
       x="408.74551"
       y="328.15234"
       clip-path="url(#clipPath3958)"
       transform="matrix(0.99995115,0,0,1.0137591,-2.5474089,-69.091972)" />
    <path
       inkscape:connector-curvature="0"
       d="m 671.84719,337.60462 c 0,40.72592 -33.28197,73.74083 -74.33737,73.74083 -41.05541,0 -74.33738,-33.01491 -74.33738,-73.74083 0,-40.72593 33.28197,-73.74084 74.33738,-73.74084 41.0554,0 74.33737,33.01491 74.33737,73.74084 z m -95.57663,0 c 0,40.72592 -33.28197,73.74083 -74.33736,73.74083 -41.05541,0 -74.3374,-33.01491 -74.3374,-73.74083 0,-40.72593 33.28199,-73.74084 74.3374,-73.74084 41.05539,0 74.33736,33.01491 74.33736,73.74084 z"
       style="fill:none;stroke:#000000;stroke-width:1.00061154"
       id="path3637-7-5" />
  </g>
</svg>
